<svg xmlns="http://www.w3.org/2000/svg" version="1.1" xmlns:xlink="http://www.w3.org/1999/xlink" xmlns:svgjs="http://svgjs.com/svgjs" id="Pattern984SvgRootPreview" width="100%" height="100%"><defs><pattern x="0" y="0" width="1" height="1" patternUnits="userSpaceOnUse" id="Pattern984Layer1"><g id="PatternRootContent1"><g id="Pattern984Layer1background"><rect width="1" height="1" id="Pattern984Background1" class="color_1 fill_color_1" fill="#555c57"></rect></g></g></pattern><pattern x="0" y="0" width="46" height="80" patternUnits="userSpaceOnUse" id="Pattern984Layer2"><g id="PatternRootContent2"><g id="Pattern984Layer2Element2"><use xlink:href="#Pattern984Element2" x="18.46126937866211" y="-48.886924743652344" transform="translate(46, -20) scale(1) translate(-46, 20) rotate(45, 46, -20)"></use><use xlink:href="#Pattern984Element2" x="-27.53873062133789" y="-48.886924743652344" transform="translate(0, -20) scale(1) translate(0, 20) rotate(45, 0, -20)"></use><use xlink:href="#Pattern984Element2" x="-4.538730621337891" y="-8.886924743652344" transform="translate(23, 20) scale(1) translate(-23, -20) rotate(45, 23, 20)"></use><use xlink:href="#Pattern984Element2" x="-50.53873062133789" y="-8.886924743652344" transform="translate(-23, 20) scale(1) translate(23, -20) rotate(45, -23, 20)"></use><use xlink:href="#Pattern984Element2" x="41.46126937866211" y="-8.886924743652344" transform="translate(69, 20) scale(1) translate(-69, -20) rotate(45, 69, 20)"></use><use xlink:href="#Pattern984Element2" x="18.46126937866211" y="31.113075256347656" transform="translate(46, 60) scale(1) translate(-46, -60) rotate(45, 46, 60)"></use><use xlink:href="#Pattern984Element2" x="-27.53873062133789" y="31.113075256347656" transform="translate(0, 60) scale(1) translate(0, -60) rotate(45, 0, 60)"></use><use xlink:href="#Pattern984Element2" x="-4.538730621337891" y="71.11307525634766" transform="translate(23, 100) scale(1) translate(-23, -100) rotate(45, 23, 100)"></use><use xlink:href="#Pattern984Element2" x="-4.538730621337891" y="71.11307525634766" transform="translate(23, 100) scale(1) translate(-23, -100) rotate(45, 23, 100)"></use></g></g></pattern><symbol id="Pattern984Element2"><g class="color_3 fill_color_3" fill="#050201"><path d="M16.225,8.485483169555664l19.799,19.799l2.828,-2.828L19.053,5.657055377960205l-2.828,2.828Zm-8.485,2.828l19.799,19.799l2.828,-2.828L10.568,8.485483169555664l-2.828,2.828Zm19.799,-8.485l-2.828,2.828l19.799,19.799l2.828,-2.828L27.539,2.8286283016204834Z"></path><path d="M50.936,29.41544532775879l-27.046,7.247l1.035,3.864L51.972,33.27914810180664l-1.036,-3.864Zm1.794,-8.763l-27.046,7.247l1.035,3.864L53.765,24.51646614074707l-1.035,-3.864Zm-2.551,21.389l-1.035,-3.864l-27.046,7.247l1.035,3.864L50.178,42.041831970214844Z"></path><path d="M15.455,49.0113639831543l7.247,-27.046l-3.864,-1.035L11.591,47.97608947753906l3.864,1.035Zm6.692,5.934l7.247,-27.046l-3.864,-1.035L18.283,53.910343170166016l3.864,1.035Zm-17.248,-12.904l3.864,1.035l7.247,-27.046l-3.864,-1.035L4.899,42.041831970214844Z"></path></g></symbol></defs><rect width="100%" height="100%" id="Pattern984RctLayer1" fill="url(#Pattern984Layer1)"></rect><rect width="100%" height="100%" id="Pattern984RctLayer2" fill="url(#Pattern984Layer2)"></rect></svg>